<svg version="1.1" id="Layer_1" xmlns="http://www.w3.org/2000/svg" xmlns:xlink="http://www.w3.org/1999/xlink" x="0px" y="0px"
	 width="100%" viewBox="0 0 512 512" enable-background="new 0 0 512 512" xml:space="preserve">
<path fill="#FFFFFF" opacity="1.000000" stroke="none" 
	d="
M271.000000,513.000000 
	C180.688583,513.000000 90.877167,513.000000 1.032874,513.000000 
	C1.032874,342.396881 1.032874,171.793777 1.032874,1.095328 
	C171.561432,1.095328 342.122955,1.095328 512.842224,1.095328 
	C512.842224,171.666550 512.842224,342.333252 512.842224,513.000000 
	C432.460419,513.000000 351.980194,513.000000 271.000000,513.000000 
M427.716736,444.788300 
	C435.314850,436.522430 443.368835,428.625153 450.413452,419.911774 
	C463.889221,403.243927 474.371490,384.757996 482.118378,364.705536 
	C488.396790,348.454132 493.864410,332.002106 496.103333,314.658936 
	C497.882965,300.873322 500.559937,287.063599 500.707001,273.241882 
	C500.899536,255.143143 499.160828,237.010696 497.920929,218.915497 
	C497.308472,209.976913 496.971710,209.999954 488.041260,209.999954 
	C414.750397,209.999954 341.459534,209.999954 268.168671,209.999954 
	C266.228973,209.999954 264.289307,209.999954 262.311768,209.999954 
	C262.311768,242.278000 262.311768,273.988983 262.311768,306.113525 
	C307.025208,306.113525 351.428741,306.113525 396.215515,306.113525 
	C393.674286,320.859650 388.423676,334.074341 381.014313,346.421204 
	C372.335693,360.883118 360.413666,372.331818 346.196289,382.338226 
	C323.889008,397.279358 298.855164,404.114807 272.471527,405.836884 
	C249.858231,407.312897 227.940903,403.539764 206.885330,394.544861 
	C180.739182,383.375366 159.751358,366.046997 143.095428,343.248840 
	C134.316925,331.233063 128.159836,317.820312 122.964226,303.221222 
	C122.654678,302.478729 122.245804,301.761414 122.050476,300.989990 
	C119.135117,289.475372 116.730431,277.958344 115.720177,266.001099 
	C114.694862,253.865585 115.997032,242.153595 118.063057,230.400146 
	C119.290794,223.415619 121.230965,216.556335 123.333252,209.116180 
	C131.938339,185.781174 144.758667,165.316742 163.101028,148.220459 
	C176.344788,135.876404 191.060913,126.128723 207.650787,119.072220 
	C223.934250,112.146057 240.968933,108.162209 258.611450,108.184433 
	C269.737335,108.198441 281.036133,109.095695 291.949493,111.196121 
	C315.341095,115.698128 336.183624,125.951408 353.684082,142.339325 
	C356.669006,145.134476 358.277802,145.389984 361.260468,142.373474 
	C383.046448,120.340393 405.013916,98.486794 426.915771,76.568199 
	C427.705261,75.778084 428.408112,74.901382 429.590027,73.571381 
	C424.757050,69.606552 420.174713,65.912827 415.662842,62.134884 
	C394.227539,44.186314 369.969727,31.165169 343.666809,22.147390 
	C323.369873,15.188722 302.378204,11.440949 280.864777,9.754993 
	C263.416718,8.387632 246.151276,9.088939 228.979416,11.227974 
	C216.420914,12.792337 203.943207,15.745361 191.727570,19.149174 
	C173.295303,24.285208 155.707626,31.694845 139.095673,41.340466 
	C124.049278,50.077061 109.478844,59.475426 96.918747,71.610039 
	C87.526970,80.683655 77.830116,89.561722 69.416092,99.498108 
	C57.689789,113.346077 47.917820,128.670456 39.209423,145.332794 
	C33.692371,159.802765 27.581238,174.079819 22.803976,188.790039 
	C16.383057,208.561432 13.708751,229.121033 13.094447,249.871246 
	C12.850789,258.101624 13.158599,266.422455 14.112234,274.597443 
	C15.693918,288.156403 17.443436,301.743011 20.136021,315.113800 
	C23.941851,334.012695 31.014233,351.862671 40.165581,369.638275 
	C46.914333,380.697723 53.197803,392.076233 60.514374,402.746307 
	C73.411171,421.554321 89.446945,437.606018 107.375031,451.578278 
	C126.229187,466.272278 146.771866,478.185455 169.079041,487.106598 
	C197.015762,498.279144 226.006500,504.311584 255.954987,504.783936 
	C271.252411,505.025238 286.692719,503.819794 301.870361,501.788269 
	C315.606964,499.949646 329.184753,496.524841 342.633148,493.031738 
	C360.402374,488.416321 377.119476,480.850739 392.475098,470.929657 
	C404.551880,463.127014 415.601776,453.735046 427.716736,444.788300 
z"/>
<path fill="#E94135" opacity="1.000000" stroke="none" 
	d="
M39.840500,144.995026 
	C47.917820,128.670456 57.689789,113.346077 69.416092,99.498108 
	C77.830116,89.561722 87.526970,80.683655 96.918747,71.610039 
	C109.478844,59.475426 124.049278,50.077061 139.095673,41.340466 
	C155.707626,31.694845 173.295303,24.285208 191.727570,19.149174 
	C203.943207,15.745361 216.420914,12.792337 228.979416,11.227974 
	C246.151276,9.088939 263.416718,8.387632 280.864777,9.754993 
	C302.378204,11.440949 323.369873,15.188722 343.666809,22.147390 
	C369.969727,31.165169 394.227539,44.186314 415.662842,62.134884 
	C420.174713,65.912827 424.757050,69.606552 429.590027,73.571381 
	C428.408112,74.901382 427.705261,75.778084 426.915771,76.568199 
	C405.013916,98.486794 383.046448,120.340393 361.260468,142.373474 
	C358.277802,145.389984 356.669006,145.134476 353.684082,142.339325 
	C336.183624,125.951408 315.341095,115.698128 291.949493,111.196121 
	C281.036133,109.095695 269.737335,108.198441 258.611450,108.184433 
	C240.968933,108.162209 223.934250,112.146057 207.650787,119.072220 
	C191.060913,126.128723 176.344788,135.876404 163.101028,148.220459 
	C144.758667,165.316742 131.938339,185.781174 122.821594,209.231659 
	C95.587410,188.753952 68.861145,168.165604 42.158634,147.546478 
	C41.263138,146.854996 40.607788,145.852539 39.840500,144.995026 
z"/>
<path fill="#34A853" opacity="1.000000" stroke="none" 
	d="
M122.833420,303.999908 
	C128.159836,317.820312 134.316925,331.233063 143.095428,343.248840 
	C159.751358,366.046997 180.739182,383.375366 206.885330,394.544861 
	C227.940903,403.539764 249.858231,407.312897 272.471527,405.836884 
	C298.855164,404.114807 323.889008,397.279358 346.682983,382.544189 
	C348.576141,383.912079 349.953644,385.111359 351.393463,386.230408 
	C376.627045,405.842438 401.868286,425.444672 427.107819,445.049042 
	C415.601776,453.735046 404.551880,463.127014 392.475098,470.929657 
	C377.119476,480.850739 360.402374,488.416321 342.633148,493.031738 
	C329.184753,496.524841 315.606964,499.949646 301.870361,501.788269 
	C286.692719,503.819794 271.252411,505.025238 255.954987,504.783936 
	C226.006500,504.311584 197.015762,498.279144 169.079041,487.106598 
	C146.771866,478.185455 126.229187,466.272278 107.375031,451.578278 
	C89.446945,437.606018 73.411171,421.554321 60.514374,402.746307 
	C53.197803,392.076233 46.914333,380.697723 40.151661,369.008850 
	C54.793640,356.891998 69.422165,345.369415 84.113663,333.927673 
	C96.983521,323.904602 109.924095,313.972321 122.833420,303.999908 
z"/>
<path fill="#4285F4" opacity="1.000000" stroke="none" 
	d="
M427.412292,444.918671 
	C401.868286,425.444672 376.627045,405.842438 351.393463,386.230408 
	C349.953644,385.111359 348.576141,383.912079 347.006714,382.456299 
	C360.413666,372.331818 372.335693,360.883118 381.014313,346.421204 
	C388.423676,334.074341 393.674286,320.859650 396.215515,306.113525 
	C351.428741,306.113525 307.025208,306.113525 262.311768,306.113525 
	C262.311768,273.988983 262.311768,242.278000 262.311768,209.999954 
	C264.289307,209.999954 266.228973,209.999954 268.168671,209.999954 
	C341.459534,209.999954 414.750397,209.999954 488.041260,209.999954 
	C496.971710,209.999954 497.308472,209.976913 497.920929,218.915497 
	C499.160828,237.010696 500.899536,255.143143 500.707001,273.241882 
	C500.559937,287.063599 497.882965,300.873322 496.103333,314.658936 
	C493.864410,332.002106 488.396790,348.454132 482.118378,364.705536 
	C474.371490,384.757996 463.889221,403.243927 450.413452,419.911774 
	C443.368835,428.625153 435.314850,436.522430 427.412292,444.918671 
z"/>
<path fill="#FABB08" opacity="1.000000" stroke="none" 
	d="
M122.898827,303.610565 
	C109.924095,313.972321 96.983521,323.904602 84.113663,333.927673 
	C69.422165,345.369415 54.793640,356.891998 39.986984,368.691010 
	C31.014233,351.862671 23.941851,334.012695 20.136021,315.113800 
	C17.443436,301.743011 15.693918,288.156403 14.112234,274.597443 
	C13.158599,266.422455 12.850789,258.101624 13.094447,249.871246 
	C13.708751,229.121033 16.383057,208.561432 22.803976,188.790039 
	C27.581238,174.079819 33.692371,159.802765 39.524963,145.163910 
	C40.607788,145.852539 41.263138,146.854996 42.158634,147.546478 
	C68.861145,168.165604 95.587410,188.753952 122.580383,209.493942 
	C121.230965,216.556335 119.290794,223.415619 118.063057,230.400146 
	C115.997032,242.153595 114.694862,253.865585 115.720177,266.001099 
	C116.730431,277.958344 119.135117,289.475372 122.050476,300.989990 
	C122.245804,301.761414 122.654678,302.478729 122.898827,303.610565 
z"/>
</svg>